<?xml version="1.0" encoding="UTF-8"?>
<!DOCTYPE svg PUBLIC "-//W3C//DTD SVG 1.1//EN" "http://www.w3.org/Graphics/SVG/1.1/DTD/svg11.dtd">
<!-- Creator: CorelDRAW 2021 (64-Bit) -->
<svg xmlns="http://www.w3.org/2000/svg" xml:space="preserve" width="6.92913in" height="6.40904in" version="1.1" style="shape-rendering:geometricPrecision; text-rendering:geometricPrecision; image-rendering:optimizeQuality; fill-rule:evenodd; clip-rule:evenodd"
viewBox="0 0 6960.65 6438.19"
 xmlns:xlink="http://www.w3.org/1999/xlink"
 xmlns:xodm="http://www.corel.com/coreldraw/odm/2003">
 <defs>
  <style type="text/css">
   <![CDATA[
    .fil4 {fill:#336666;fill-rule:nonzero}
    .fil1 {fill:#663333;fill-rule:nonzero}
    .fil5 {fill:#6666FF;fill-rule:nonzero}
    .fil0 {fill:#FF0066;fill-rule:nonzero}
    .fil2 {fill:#FF6600;fill-rule:nonzero}
    .fil3 {fill:#FF6633;fill-rule:nonzero}
    .fil6 {fill:#FF9966;fill-rule:nonzero}
   ]]>
  </style>
 </defs>
 <g id="Layer_x0020_1">
  <metadata id="CorelCorpID_0Corel-Layer"/>
  <g id="_2699356854192">
   <path class="fil0" d="M814.45 3651.78c65.58,0 118.75,-53.17 118.75,-118.75l0 -600.41c15.48,16.04 31.84,35.46 50.87,58.53 70.16,85.05 166.24,201.52 352.81,201.52 186.59,0 282.68,-116.46 352.83,-201.5 64.15,-77.77 98.16,-115.15 169.61,-115.15 71.44,0 105.45,37.38 169.58,115.14 70.14,85.04 166.21,201.52 352.78,201.52 186.57,0 282.65,-116.46 352.78,-201.52 64.14,-77.77 98.15,-115.14 169.58,-115.14 71.47,0 105.48,37.38 169.61,115.15 70.16,85.04 166.24,201.5 352.83,201.5 186.59,0 282.68,-116.46 352.83,-201.5 64.15,-77.77 98.16,-115.15 169.61,-115.15 71.47,0 105.49,37.38 169.65,115.15 70.16,85.04 166.24,201.5 352.83,201.5 186.59,0 282.68,-116.46 352.83,-201.52 64.15,-77.77 98.16,-115.14 169.61,-115.14 71.5,0 105.51,37.38 169.68,115.15 70.17,85.04 166.26,201.5 352.86,201.5 186.6,0 282.69,-116.46 352.86,-201.5 19.05,-23.08 35.42,-42.53 50.92,-58.58l0 434.23c0,65.58 53.17,118.75 118.75,118.75 65.58,0 118.75,-53.17 118.75,-118.75l0 -911.03c0,-257.15 -209.21,-466.37 -466.37,-466.37l-766.61 0 0 -926.16c0,-65.58 -53.17,-118.75 -118.75,-118.75l-403.69 0c-65.58,0 -118.75,53.17 -118.75,118.75l0 926.16 -605.56 0 0 -926.16c0,-65.58 -53.17,-118.75 -118.75,-118.75l-403.71 0c-65.58,0 -118.75,53.17 -118.75,118.75l0 926.16 -605.57 0 0 -926.16c0,-65.58 -53.17,-118.75 -118.75,-118.75l-403.71 0c-65.58,0 -118.75,53.17 -118.75,118.75l0 926.16 -627.92 0c-257.15,0 -466.35,209.21 -466.35,466.37l0 1077.25c0,65.56 53.17,118.73 118.75,118.73zm3706.56 -2469.77l166.22 0 0 807.42 -166.22 0 0 -807.42zm-1246.76 0l166.23 0 0 807.42 -166.23 0 0 -807.42zm-1246.75 0l166.22 0 0 807.42 -166.22 0 0 -807.42zm-865.45 1044.91l4529.29 0c126.2,0 228.87,102.67 228.87,228.87l0 200.74c-112.05,35.89 -180.66,118.75 -234.12,183.5 -64.17,77.77 -98.18,115.15 -169.68,115.15 -71.49,0 -105.51,-37.38 -169.66,-115.15 -70.17,-85.04 -166.26,-201.5 -352.86,-201.5 -186.59,0 -282.68,116.46 -352.81,201.5 -64.15,77.77 -98.16,115.15 -169.63,115.15 -71.47,0 -105.49,-37.38 -169.65,-115.15 -70.16,-85.04 -166.24,-201.5 -352.83,-201.5 -186.59,0 -282.68,116.46 -352.83,201.5 -64.15,77.77 -98.16,115.15 -169.61,115.15 -71.45,0 -105.48,-37.38 -169.61,-115.15 -70.16,-85.04 -166.24,-201.5 -352.83,-201.5 -186.59,0 -282.65,116.46 -352.8,201.52 -64.14,77.77 -98.15,115.14 -169.58,115.14 -71.44,0 -105.45,-37.38 -169.58,-115.14 -70.14,-85.04 -166.21,-201.52 -352.78,-201.52 -186.59,0 -282.68,116.46 -352.83,201.5 -64.15,77.77 -98.16,115.15 -169.61,115.15 -71.45,0 -105.46,-37.38 -169.61,-115.14 -53.43,-64.77 -122.04,-147.63 -234.07,-183.52l0 -200.74c-0.02,-126.2 102.63,-228.87 228.84,-228.87z"/>
   <path class="fil1" d="M3428.6 4554.2l-736.2 0c-65.58,0 -118.75,53.17 -118.75,118.75 0,65.58 53.17,118.75 118.75,118.75l736.2 -0c65.58,0 118.75,-53.17 118.75,-118.75 0,-65.58 -53.17,-118.74 -118.75,-118.74z"/>
   <path class="fil2" d="M3080.29 782.05c76.39,76.38 176.74,114.57 277.07,114.57 100.35,0 200.7,-38.19 277.07,-114.58 152.79,-152.77 152.79,-401.37 0,-554.14l-193.11 -193.11c-22.26,-22.28 -52.47,-34.78 -83.96,-34.78 -31.49,0 -61.7,12.51 -83.96,34.78l-193.11 193.11c-152.79,152.79 -152.79,401.38 0,554.16 0,0 0,0 0,0zm167.92 -386.22l109.15 -109.15 109.15 109.15c60.18,60.18 60.18,158.11 0,218.28 -60.18,60.21 -158.12,60.19 -218.3,0l0 0c-60.19,-60.18 -60.19,-158.1 -0,-218.28z"/>
   <path class="fil3" d="M1833.53 782.05c76.39,76.38 176.74,114.57 277.07,114.57 100.35,0 200.7,-38.19 277.07,-114.58 152.79,-152.77 152.79,-401.37 0,-554.14l-193.11 -193.11c-22.26,-22.28 -52.47,-34.78 -83.96,-34.78 -31.49,0 -61.7,12.51 -83.96,34.78l-193.11 193.11c-152.79,152.79 -152.79,401.38 -0,554.16 0,0 0,0 0,0zm167.92 -386.22l109.15 -109.15 109.15 109.15c60.18,60.18 60.18,158.11 0,218.28 -60.18,60.21 -158.12,60.19 -218.3,0l0 0c-60.18,-60.18 -60.18,-158.1 -0,-218.28z"/>
   <path class="fil2" d="M4327.05 782.05c76.39,76.38 176.74,114.57 277.07,114.57 100.35,0 200.7,-38.19 277.07,-114.58 152.79,-152.77 152.79,-401.37 0,-554.14l-193.11 -193.11c-22.26,-22.28 -52.47,-34.78 -83.96,-34.78 -31.49,0 -61.7,12.51 -83.96,34.78l-193.11 193.11c-152.79,152.79 -152.79,401.38 0,554.16 0,0 0,0 0,0zm167.92 -386.22l109.15 -109.15 109.15 109.15c60.18,60.18 60.18,158.11 0,218.28 -60.18,60.21 -158.12,60.19 -218.3,0l0 0c-60.18,-60.18 -60.18,-158.1 -0,-218.28z"/>
   <path class="fil4" d="M1101.32 5844.5l-863.83 0 0 -1211.12 1899.81 -0 0 88.66c0,65.58 53.17,118.75 118.75,118.75 65.58,0 118.75,-53.17 118.75,-118.75l0 -848.6c0,-65.58 -53.17,-118.75 -118.75,-118.75l-2137.29 0c-65.58,0 -118.75,53.17 -118.75,118.75l0 2089.8c0,65.58 53.17,118.75 118.75,118.75l982.57 -0c65.58,0 118.75,-53.17 118.75,-118.75 0,-65.58 -53.17,-118.74 -118.75,-118.74zm1035.98 -1852.31l0 403.7 -1899.81 0 0 -403.7 1899.81 0z"/>
   <path class="fil5" d="M6841.9 3618.58l-3050.57 0c-65.58,0 -118.75,53.17 -118.75,118.75l0 1584.25c0,65.58 53.17,118.75 118.75,118.75l3050.57 -0c65.58,0 118.75,-53.17 118.75,-118.75l0 -1584.25c0,-65.59 -53.17,-118.74 -118.75,-118.74zm-118.74 611.06l-1287.79 0 0 -373.59 1287.79 -0 0 373.59zm-1525.29 -373.57l0 373.59 -1287.79 0 0 -373.59 1287.79 -0zm-1287.79 611.06l1287.79 0 0 735.68 -1287.79 0 0 -735.68zm1525.29 735.68l0 -735.68 1287.79 0 0 735.68 -1287.79 0z"/>
   <path class="fil6" d="M3228.25 5024.12l-1703.63 0c-65.58,0 -118.75,53.17 -118.75,118.75l0 1176.57c0,65.58 53.17,118.75 118.75,118.75l1703.63 0c65.58,0 118.75,-53.17 118.75,-118.75l0 -1176.57c-0,-65.58 -53.17,-118.75 -118.75,-118.75zm-118.75 588.29l-614.32 0 0 -350.8 614.32 0 0 350.8zm-851.81 -350.8l0 350.8 -614.32 -0 0 -350.8 614.32 0zm-614.32 588.29l614.32 0 0 350.8 -614.32 0 0 -350.8zm851.81 350.8l0 -350.8 614.32 0 0 350.8 -614.32 0z"/>
  </g>
 </g>
</svg>
